<svg width="63" height="63" viewBox="0 0 63 63" fill="none" xmlns="http://www.w3.org/2000/svg">
<rect width="63" height="63" rx="31.5" fill="black"/>
<path d="M32 22C30.8065 23.1935 30.136 24.8122 30.136 26.5C30.136 28.1878 30.8065 29.8065 32 31C33.1935 32.1935 34.8122 32.864 36.5 32.864C38.1878 32.864 39.8065 32.1935 41 31C41 32.78 40.4722 34.5201 39.4832 36.0001C38.4943 37.4802 37.0887 38.6337 35.4442 39.3149C33.7996 39.9961 31.99 40.1743 30.2442 39.8271C28.4984 39.4798 26.8947 38.6226 25.636 37.364C24.3774 36.1053 23.5202 34.5016 23.1729 32.7558C22.8257 31.01 23.0039 29.2004 23.6851 27.5558C24.3663 25.9113 25.5198 24.5057 26.9999 23.5168C28.4799 22.5278 30.22 22 32 22Z" stroke="white" stroke-width="2" stroke-linecap="round" stroke-linejoin="round"/>
</svg>
