<svg width="59" height="59" viewBox="0 0 59 59" fill="none" xmlns="http://www.w3.org/2000/svg">
<rect width="59" height="59" rx="29.5" fill="#D9D9D9"/>
<path d="M33.625 43.25V37.75C33.8162 36.0275 33.3224 34.2989 32.25 32.9375C36.375 32.9375 40.5 30.1875 40.5 25.375C40.61 23.6562 40.1287 21.965 39.125 20.5625C39.51 18.9813 39.51 17.3312 39.125 15.75C39.125 15.75 37.75 15.75 35 17.8125C31.37 17.125 27.63 17.125 24 17.8125C21.25 15.75 19.875 15.75 19.875 15.75C19.4625 17.3312 19.4625 18.9813 19.875 20.5625C18.8738 21.9593 18.3879 23.6601 18.5 25.375C18.5 30.1875 22.625 32.9375 26.75 32.9375C26.2137 33.6113 25.815 34.3812 25.5812 35.2062C25.3475 36.0312 25.2787 36.8975 25.375 37.75V43.25" stroke="black" stroke-width="2" stroke-linecap="round" stroke-linejoin="round"/>
<path d="M25.375 37.75C19.1737 40.5 18.5 35 15.75 35" stroke="black" stroke-width="2" stroke-linecap="round" stroke-linejoin="round"/>
</svg>
