<svg width="59" height="59" viewBox="0 0 59 59" fill="none" xmlns="http://www.w3.org/2000/svg">
<rect width="59" height="59" rx="29.5" fill="#D9D9D9"/>
<path d="M35.3333 24.6667C37.455 24.6667 39.4898 25.5096 40.9901 27.0099C42.4904 28.5102 43.3333 30.545 43.3333 32.6667V42.0001H37.9999V32.6667C37.9999 31.9595 37.719 31.2812 37.2189 30.7811C36.7188 30.281 36.0405 30.0001 35.3333 30.0001C34.626 30.0001 33.9477 30.281 33.4476 30.7811C32.9475 31.2812 32.6666 31.9595 32.6666 32.6667V42.0001H27.3333V32.6667C27.3333 30.545 28.1761 28.5102 29.6764 27.0099C31.1767 25.5096 33.2115 24.6667 35.3333 24.6667Z" stroke="black" stroke-width="2" stroke-linecap="round" stroke-linejoin="round"/>
<path d="M22.0001 26H16.6667V42H22.0001V26Z" stroke="black" stroke-width="2" stroke-linecap="round" stroke-linejoin="round"/>
<path d="M19.3334 22.0001C20.8062 22.0001 22.0001 20.8062 22.0001 19.3334C22.0001 17.8607 20.8062 16.6667 19.3334 16.6667C17.8607 16.6667 16.6667 17.8607 16.6667 19.3334C16.6667 20.8062 17.8607 22.0001 19.3334 22.0001Z" stroke="black" stroke-width="2" stroke-linecap="round" stroke-linejoin="round"/>
</svg>
