<svg width="76" height="76" viewBox="0 0 76 76" fill="none" xmlns="http://www.w3.org/2000/svg">
<rect width="75.9321" height="75.9321" rx="37.9661" fill="#D9D9D9"/>
<path d="M40.6591 58.8432C40.7284 59.0158 40.8488 59.1631 41.0042 59.2653C41.1596 59.3675 41.3426 59.4198 41.5285 59.415C41.7144 59.4103 41.8945 59.3487 42.0445 59.2387C42.1944 59.1286 42.3071 58.9754 42.3675 58.7994L54.2185 24.1581C54.2768 23.9965 54.288 23.8217 54.2506 23.654C54.2132 23.4864 54.1288 23.3329 54.0074 23.2114C53.8859 23.0899 53.7324 23.0056 53.5647 22.9682C53.3971 22.9308 53.2223 22.942 53.0607 23.0003L18.4194 34.8513C18.2434 34.9116 18.0901 35.0244 17.9801 35.1743C17.8701 35.3243 17.8085 35.5043 17.8038 35.6903C17.799 35.8762 17.8512 36.0592 17.9535 36.2146C18.0557 36.37 18.203 36.4904 18.3756 36.5597L32.8338 42.3575C33.2909 42.5405 33.7061 42.8142 34.0546 43.162C34.403 43.5098 34.6774 43.9246 34.8612 44.3813L40.6591 58.8432Z" stroke="black" stroke-width="2" stroke-linecap="round" stroke-linejoin="round"/>
<path d="M54.0015 23.2192L34.0554 43.1635" stroke="black" stroke-width="2" stroke-linecap="round" stroke-linejoin="round"/>
</svg>
